<?xml version="1.0" encoding="UTF-8"?>
<svg width="800px" height="800px" viewBox="0 0 800 800" version="1.1" xmlns="http://www.w3.org/2000/svg">
    <title>AI Circuit Pattern</title>
    <g stroke="#ffffff" stroke-width="1.5" fill="none" fill-rule="evenodd">
        <!-- Main Circuit Paths -->
        <path d="M100,100 L300,100 L300,200 L500,200 L500,400 L700,400" />
        <path d="M100,300 L200,300 L200,500 L400,500 L400,600 L600,600" />
        <path d="M300,700 L300,500 L500,500 L500,300 L700,300" />
        <path d="M100,700 L200,700 L200,600 L400,600 L400,400 L600,400 L600,200 L700,200" />
        
        <!-- Connection Nodes -->
        <circle cx="300" cy="100" r="5" fill="#ffffff" />
        <circle cx="300" cy="200" r="5" fill="#ffffff" />
        <circle cx="500" cy="200" r="5" fill="#ffffff" />
        <circle cx="500" cy="400" r="5" fill="#ffffff" />
        
        <circle cx="200" cy="300" r="5" fill="#ffffff" />
        <circle cx="200" cy="500" r="5" fill="#ffffff" />
        <circle cx="400" cy="500" r="5" fill="#ffffff" />
        <circle cx="400" cy="600" r="5" fill="#ffffff" />
        
        <circle cx="300" cy="500" r="5" fill="#ffffff" />
        <circle cx="500" cy="500" r="5" fill="#ffffff" />
        <circle cx="500" cy="300" r="5" fill="#ffffff" />
        
        <circle cx="200" cy="700" r="5" fill="#ffffff" />
        <circle cx="200" cy="600" r="5" fill="#ffffff" />
        <circle cx="400" cy="400" r="5" fill="#ffffff" />
        <circle cx="600" cy="400" r="5" fill="#ffffff" />
        <circle cx="600" cy="200" r="5" fill="#ffffff" />
        
        <!-- CPU-like elements -->
        <rect x="350" y="350" width="100" height="100" rx="5" />
        <rect x="370" y="370" width="60" height="60" rx="3" />
        <line x1="350" y1="375" x2="330" y2="375" />
        <line x1="350" y1="385" x2="330" y2="385" />
        <line x1="350" y1="395" x2="330" y2="395" />
        <line x1="350" y1="405" x2="330" y2="405" />
        <line x1="350" y1="415" x2="330" y2="415" />
        <line x1="350" y1="425" x2="330" y2="425" />
        
        <line x1="450" y1="375" x2="470" y2="375" />
        <line x1="450" y1="385" x2="470" y2="385" />
        <line x1="450" y1="395" x2="470" y2="395" />
        <line x1="450" y1="405" x2="470" y2="405" />
        <line x1="450" y1="415" x2="470" y2="415" />
        <line x1="450" y1="425" x2="470" y2="425" />
        
        <line x1="375" y1="350" x2="375" y2="330" />
        <line x1="385" y1="350" x2="385" y2="330" />
        <line x1="395" y1="350" x2="395" y2="330" />
        <line x1="405" y1="350" x2="405" y2="330" />
        <line x1="415" y1="350" x2="415" y2="330" />
        <line x1="425" y1="350" x2="425" y2="330" />
        
        <line x1="375" y1="450" x2="375" y2="470" />
        <line x1="385" y1="450" x2="385" y2="470" />
        <line x1="395" y1="450" x2="395" y2="470" />
        <line x1="405" y1="450" x2="405" y2="470" />
        <line x1="415" y1="450" x2="415" y2="470" />
        <line x1="425" y1="450" x2="425" y2="470" />
        
        <!-- Brain-like elements -->
        <path d="M650,100 C670,80 690,80 710,100 C730,120 730,140 710,160 C690,180 670,180 650,160 C630,140 630,120 650,100 Z" />
        <path d="M660,110 C675,95 685,95 700,110 C715,125 715,140 700,155 C685,170 675,170 660,155 C645,140 645,125 660,110 Z" />
        
        <!-- Additional circuit paths -->
        <path d="M100,200 L150,200 L150,250 L250,250 L250,350 L150,350 L150,450 L250,450 L250,550 L150,550 L150,650 L100,650" />
        <path d="M700,100 L650,100 L650,50 L550,50 L550,150 L450,150 L450,50 L350,50 L350,150 L250,150 L250,50 L150,50 L150,150 L100,150" />
        
        <!-- Data flow animations -->
        <circle cx="150" cy="200" r="3" fill="#ffffff">
            <animate attributeName="opacity" values="0;1;0" dur="3s" repeatCount="indefinite" />
        </circle>
        <circle cx="250" cy="250" r="3" fill="#ffffff">
            <animate attributeName="opacity" values="0;1;0" dur="3s" begin="0.5s" repeatCount="indefinite" />
        </circle>
        <circle cx="250" cy="350" r="3" fill="#ffffff">
            <animate attributeName="opacity" values="0;1;0" dur="3s" begin="1s" repeatCount="indefinite" />
        </circle>
        <circle cx="150" cy="450" r="3" fill="#ffffff">
            <animate attributeName="opacity" values="0;1;0" dur="3s" begin="1.5s" repeatCount="indefinite" />
        </circle>
        <circle cx="250" cy="550" r="3" fill="#ffffff">
            <animate attributeName="opacity" values="0;1;0" dur="3s" begin="2s" repeatCount="indefinite" />
        </circle>
        
        <!-- Neural network nodes -->
        <circle cx="650" cy="500" r="20" />
        <circle cx="700" cy="550" r="15" />
        <circle cx="600" cy="550" r="15" />
        <circle cx="650" cy="600" r="15" />
        <line x1="650" y1="520" x2="700" y2="550" />
        <line x1="650" y1="520" x2="600" y2="550" />
        <line x1="650" y1="520" x2="650" y2="600" />
        <line x1="700" y1="550" x2="650" y2="600" />
        <line x1="600" y1="550" x2="650" y2="600" />
    </g>
</svg>
